# xmcd
#
# Track frame offsets:
#	150
#	17340
#	34017
#	52728
#	71601
#	88797
#	105592
#	125339
#	144463
#	162480
#	179255
#	193953
#	212248
#	225434
#	244932
#
# Disc length: 3504 seconds
#
# Revision: 1
# Processed by: cddbd v1.5.2PL0 Copyright (c) Steve Scherf et al.
# Submitted via: audiograbber 1.83.01
#
DISCID=c90dae0f
DTITLE=Sound Choice - Country Hits - Vol. 158 SC8802
DYEAR=1900
DGENRE=Karaoke
TTITLE0=Deana Carter - There's No Limit
TTITLE1=Allison Moorer - Up This High
TTITLE2=Blake Shelton - The Baby
TTITLE3=Nickel Creek - Speak
TTITLE4=Keith Urban - Whenever I Run
TTITLE5=Pinmonkey - I Drove All Night
TTITLE6=Joe Nichols - Brokenheartsville
TTITLE7=Faith Hill - When The Lights Go Down
TTITLE8=Alan Jackson - That'd Be Alright
TTITLE9=Vince Gill - Next Big Thing
TTITLE10=Dolly Parton - Hello God
TTITLE11=Rascal Flatts - I Melt
TTITLE12=Lee Ann Womack - He'll Be Back
TTITLE13=Martina McBride - Concrete Angel
TTITLE14=Chris Cagle - What A Beautiful Day
EXTD=
EXTT0=
EXTT1=
EXTT2=
EXTT3=
EXTT4=
EXTT5=
EXTT6=
EXTT7=
EXTT8=
EXTT9=
EXTT10=
EXTT11=
EXTT12=
EXTT13=
EXTT14=
PLAYORDER=
